<mxfile host="app.diagrams.net" modified="2023-07-10T07:59:50.331Z" agent="Mozilla/5.0 (Windows NT 10.0; Win64; x64) AppleWebKit/537.36 (KHTML, like Gecko) Chrome/114.0.0.0 Safari/537.36" version="21.6.1" etag="lXaDvUb7DpE67dURqwtT" type="github">
  <diagram name="第1頁" id="9UQ0ZwLH7AAtFSjvC-LS">
    <mxGraphModel>
      <root>
        <mxCell id="0" />
        <mxCell id="1" parent="0" />
      </root>
    </mxGraphModel>
  </diagram>
</mxfile>
